<?xml version="1.0" encoding="utf-8"?>
<!DOCTYPE svg PUBLIC "-//W3C//DTD SVG 1.0//EN" "http://www.w3.org/TR/2001/REC-SVG-20010904/DTD/svg10.dtd">
<svg version="1.0" xmlns="http://www.w3.org/2000/svg" width="157px" height="136px" viewBox="0 0 157 136" preserveAspectRatio="xMidYMid meet">
 <g fill="#ffffff">
  <path d="M0 68 l0 -68 37.5 0 c36.1 0 37.5 0.1 37.5 1.9 0 1.5 -1 2 -4.7 2.6 -2.7 0.4 -7.7 1.8 -11.3 3.2 -7.9 3.1 -20 10.9 -20 12.9 0 0.8 -0.6 1.4 -1.4 1.4 -0.8 0 -3.1 1.9 -5.1 4.2 -9.3 10.8 -15.2 25.2 -16.2 39.2 -0.6 9.3 0.3 11.2 4 7.8 1.2 -1.1 4.1 -3.1 6.3 -4.6 4.1 -2.7 4.1 -2.7 4.6 -10 0.6 -9.8 4.8 -18.8 12.2 -26.1 5.7 -5.7 15.2 -11 21.6 -12.1 1.9 -0.3 4.4 -1 5.5 -1.5 2.9 -1.4 20.5 0.5 27.6 3 7.3 2.5 12.5 5.8 17.4 11.2 9.3 10.1 12 17.9 12 34.4 0 15.5 -0.5 17.5 -4.8 17.5 -1.8 0 -4.9 -1.1 -7.1 -2.6 -6.4 -4.3 -19.6 -10 -27.6 -11.9 -8.5 -1.9 -23.6 -2.3 -25.3 -0.6 -0.6 0.6 -2.5 1.1 -4.3 1.1 -3.7 0 -23.2 9.4 -24.1 11.6 -0.3 0.8 -1 1.4 -1.7 1.4 -0.6 0 -3.4 1.9 -6 4.3 l-4.9 4.3 2.7 5 c3.8 7 11.4 16.5 13.7 17.1 1 0.3 1.9 1.1 1.9 1.7 0 2.1 13.9 10.4 21.3 12.8 4 1.3 7.3 2.6 7.5 3 0.2 0.5 1.5 0.8 2.8 0.8 1.5 0 2.4 0.6 2.4 1.5 0 1.3 -4.8 1.5 -37 1.5 l-37 0 0 -68z m20.6 -44 c1.2 -3 2.5 -6.4 2.8 -7.4 0.4 -1.6 0.7 -1.7 2 -0.6 1.4 1.1 1.6 0.4 1.6 -6.5 0 -4.3 -0.2 -7.6 -0.4 -7.4 -2.4 2.4 -8.6 10.5 -8.6 11.1 0 0.5 0.6 0.8 1.4 0.8 1.2 0 1 1.1 -0.7 6 -1.2 3.3 -2.5 6 -2.8 6 -0.3 0 -1.3 -1.8 -2.2 -4 -1.1 -2.8 -2 -3.8 -3 -3.4 -1.2 0.4 -1.1 1.4 0.7 6 1.8 4.7 2.4 5.4 4.5 5.2 2 -0.2 3 -1.5 4.7 -5.8z m-9.6 -9.4 c0 -0.8 -0.4 -1.7 -0.8 -2 -1.3 -0.8 -3.5 1.1 -2.8 2.3 1 1.6 3.6 1.4 3.6 -0.3z m-2.4 -4.7 c0.3 -0.6 0.2 -1.5 -0.2 -1.9 -1.2 -1.2 -3.8 0.5 -3 1.9 0.9 1.4 2.3 1.4 3.2 0z m-2.3 -6.5 c-0.3 -0.8 -0.9 -1.4 -1.3 -1.4 -1.3 0 -2.2 1.9 -1.5 3 0.9 1.4 3.4 0 2.8 -1.6z"/>
  <path d="M84 134.5 c0 -0.9 0.9 -1.5 2.4 -1.5 1.3 0 2.6 -0.3 2.8 -0.7 0.2 -0.5 3.5 -1.9 7.3 -3.1 7.3 -2.5 18.5 -8.7 18.5 -10.3 0 -0.5 0.6 -0.9 1.3 -0.9 0.7 0 3.1 -1.8 5.2 -4 4.9 -5 9.7 -5.5 13.6 -1.4 1.3 1.4 3.7 3.5 5.3 4.7 l2.9 2 3.3 -3.9 c1.9 -2.1 3.4 -4.2 3.4 -4.6 0 -0.3 -3 -3.3 -6.6 -6.7 -6.5 -5.9 -6.6 -6.1 -6.1 -10.3 0.2 -2.4 1.4 -7.9 2.6 -12.2 3.8 -14.1 2.3 -26.2 -5.1 -41.6 -3.3 -7 -5.6 -10 -12.7 -17 -5.2 -5.1 -11 -9.8 -14.6 -11.7 -6.6 -3.4 -18.3 -7.3 -22.1 -7.3 -1.7 0 -2.4 -0.6 -2.4 -2 0 -2 0.7 -2 37 -2 l37 0 0 68 0 68 -36.5 0 c-31.8 0 -36.5 -0.2 -36.5 -1.5z"/>
  <path d="M66 116.9 c-12 -2.3 -27 -13.8 -27 -20.6 0 -2.9 0.6 -3.7 4.8 -6.4 9.1 -5.8 15.9 -7.3 32.7 -7.2 9.8 0.1 15.1 0.5 15.3 1.2 0.2 0.6 1.1 1.1 2.1 1.1 2 0 15.2 6.2 19.2 9.1 4.6 3.2 4 7.6 -1.5 12.7 -5.3 4.9 -10.6 7.7 -18.3 9.7 -6.2 1.6 -20 1.8 -27.3 0.4z"/>
 </g>
 <g fill="#0397a1">
  <path d="M68.1 135 c-9.2 -2 -17.5 -5.4 -24.7 -10.2 -4.3 -2.9 -7.1 -5.4 -6.8 -6 0.4 -0.6 0.2 -0.8 -0.3 -0.5 -2.1 1.3 -12.5 -12.1 -16.9 -21.8 l-2.5 -5.5 3.6 -3.1 c5.6 -5 8.2 -6.9 9.3 -6.9 0.5 0 1.2 -0.6 1.5 -1.4 0.8 -1.9 20.3 -11.5 24.2 -11.9 1.7 -0.2 3.7 -0.7 4.5 -1.2 2.5 -1.6 22.1 -1 30.5 0.9 7.7 1.8 22.6 8.2 29.2 12.6 l3.2 2.1 0.8 -2.8 c1.6 -5.5 0.7 -21.4 -1.5 -27.5 -5.2 -14.4 -16.1 -24.2 -31.4 -28.2 -5.9 -1.5 -15.3 -2.2 -17.8 -1.3 -0.8 0.3 -3.1 0.8 -5 1.1 -6.4 1.1 -15.9 6.4 -21.6 12.1 -7.4 7.4 -11.6 16.3 -12.2 26.1 -0.5 7.2 -0.5 7.5 -4.1 9.6 -2 1.3 -6.4 4.6 -9.8 7.5 l-6.1 5.2 -0.8 -7.6 c-1.9 -20.5 3.9 -39.1 16.6 -53.6 2.3 -2.6 4.6 -4.4 5.1 -4.1 0.5 0.3 0.8 0 0.7 -0.7 -0.4 -1.8 12.3 -10.1 19.9 -13.1 14.4 -5.5 27.8 -6 41.8 -1.7 11.4 3.4 18.3 7.7 27.6 16.9 7.1 7 9.4 10 12.7 17 5.9 12.2 7.5 20.1 6.9 33.5 -0.3 7.4 -1.2 13.2 -2.6 17.8 l-2.2 6.8 7.1 6.6 c3.9 3.6 7.5 7.3 8 8.2 0.6 1.3 -0.7 3.3 -5.9 9.1 -6.5 7.1 -6.8 7.3 -8.2 5.3 -0.8 -1.1 -3.8 -4.2 -6.7 -6.8 l-5.3 -4.8 -4.2 4.2 c-2.4 2.2 -4.8 4.1 -5.5 4.1 -0.7 0 -1.2 0.4 -1.2 0.9 0 1.7 -11.4 7.9 -19.5 10.6 -8.8 3 -22.7 4.1 -30.4 2.5z m22.4 -21.5 c7.6 -2 14.4 -5.7 19 -10.5 l3.7 -3.7 -3 -2.2 c-4.2 -2.9 -17.3 -9.1 -19.4 -9.1 -1 0 -1.8 -0.3 -1.8 -0.7 0 -1 -1.6 -1.1 -14.5 -1.4 -11.4 -0.2 -19.7 1.9 -27.8 7.1 l-4.8 3 2.8 3.5 c9.8 12.3 29.3 18.3 45.8 14z"/>
 </g>
</svg>